<mxfile host="app.diagrams.net" modified="2022-04-08T05:08:24.126Z" agent="5.0 (Windows NT 10.0; Win64; x64) AppleWebKit/537.36 (KHTML, like Gecko) Chrome/99.0.4844.82 Safari/537.36" etag="mPowjiarCC3MtmYpSmWb" version="15.1.4" type="github">
  <diagram id="vM_S7epnA4ZEpF3fAAMF" name="Page-1">
    <mxGraphModel dx="929" dy="569" grid="1" gridSize="10" guides="1" tooltips="1" connect="1" arrows="1" fold="1" page="1" pageScale="1" pageWidth="850" pageHeight="1100" math="0" shadow="0">
      <root>
        <mxCell id="0" />
        <mxCell id="1" parent="0" />
        <mxCell id="icdGh5UK9BnnpI5lPqFg-1" value="" style="endArrow=none;dashed=1;html=1;dashPattern=1 3;strokeWidth=2;" edge="1" parent="1">
          <mxGeometry width="50" height="50" relative="1" as="geometry">
            <mxPoint x="80" y="270" as="sourcePoint" />
            <mxPoint x="560" y="270" as="targetPoint" />
          </mxGeometry>
        </mxCell>
        <mxCell id="icdGh5UK9BnnpI5lPqFg-3" value="" style="ellipse;shape=cloud;whiteSpace=wrap;html=1;" vertex="1" parent="1">
          <mxGeometry x="95" y="100" width="430" height="150" as="geometry" />
        </mxCell>
        <mxCell id="icdGh5UK9BnnpI5lPqFg-5" value="On Prem Customer DataCenter" style="text;html=1;strokeColor=none;fillColor=none;align=center;verticalAlign=middle;whiteSpace=wrap;rounded=0;" vertex="1" parent="1">
          <mxGeometry x="430" y="280" width="130" height="20" as="geometry" />
        </mxCell>
        <mxCell id="icdGh5UK9BnnpI5lPqFg-6" value="Azure" style="text;html=1;strokeColor=none;fillColor=none;align=center;verticalAlign=middle;whiteSpace=wrap;rounded=0;" vertex="1" parent="1">
          <mxGeometry x="460" y="240" width="90" height="20" as="geometry" />
        </mxCell>
        <mxCell id="icdGh5UK9BnnpI5lPqFg-7" value="Services" style="html=1;strokeColor=none;fillColor=#0079D6;labelPosition=center;verticalLabelPosition=middle;verticalAlign=top;align=center;fontSize=12;outlineConnect=0;spacingTop=-6;fontColor=#FFFFFF;sketch=0;shape=mxgraph.sitemap.services;" vertex="1" parent="1">
          <mxGeometry x="260" y="150" width="120" height="70" as="geometry" />
        </mxCell>
        <mxCell id="icdGh5UK9BnnpI5lPqFg-8" value="" style="rounded=0;whiteSpace=wrap;html=1;" vertex="1" parent="1">
          <mxGeometry x="220" y="320" width="220" height="70" as="geometry" />
        </mxCell>
        <mxCell id="icdGh5UK9BnnpI5lPqFg-12" value="" style="edgeStyle=orthogonalEdgeStyle;rounded=0;orthogonalLoop=1;jettySize=auto;html=1;entryX=0.5;entryY=1;entryDx=0;entryDy=0;entryPerimeter=0;" edge="1" parent="1" source="icdGh5UK9BnnpI5lPqFg-11" target="icdGh5UK9BnnpI5lPqFg-7">
          <mxGeometry relative="1" as="geometry" />
        </mxCell>
        <mxCell id="icdGh5UK9BnnpI5lPqFg-11" value="Arc Agents" style="rounded=0;whiteSpace=wrap;html=1;" vertex="1" parent="1">
          <mxGeometry x="340" y="340" width="90" height="40" as="geometry" />
        </mxCell>
        <mxCell id="icdGh5UK9BnnpI5lPqFg-13" value="K8s Cluster" style="text;html=1;strokeColor=none;fillColor=none;align=center;verticalAlign=middle;whiteSpace=wrap;rounded=0;" vertex="1" parent="1">
          <mxGeometry x="230" y="330" width="80" height="20" as="geometry" />
        </mxCell>
      </root>
    </mxGraphModel>
  </diagram>
</mxfile>
